# xmcd
#
# Track frame offsets: 
#        150
#        9730
#        31772
#        46335
#        62450
#        87167
#        102570
#        123812
#        143590
#        164742
#        183900
#        197550
#        219327
#        239750
#        254865
#        274100
#        294982
#        317357
#
# Disc length: 4434 seconds
#
# Revision: 2
# Processed by: cddbd v1.5.2PL0 Copyright (c) Steve Scherf et al.
# Submitted via: ExactAudioCopy v0.95b4
#
DISCID=00115012
DTITLE=Project Playaz - Til We Die
DYEAR=2000
DGENRE=Rap
TTITLE0=Til We Die
TTITLE1=Affiliation
TTITLE2=It's Goin' Down
TTITLE3=Bounce It (Bucked Naked)
TTITLE4=Dirty Down South (feat. Eightball and MJG, Tom Skeemask)
TTITLE5=Ho Yean Know
TTITLE6=No Promise
TTITLE7=Buck With Me
TTITLE8=He Say, She Say
TTITLE9=The Biz (feat. Kingpin Skinny Pimp)
TTITLE10=WTTWGALOM
TTITLE11=All In One Night
TTITLE12=Homicidal Villian
TTITLE13=Hater
TTITLE14=Times Change
TTITLE15=You and Your Friends
TTITLE16=Run 'Em Over (feat. M.O.P., Tom Skeemask)
TTITLE17=Welcome To Memphis
EXTD=
EXTT0=
EXTT1=
EXTT2=
EXTT3=
EXTT4=
EXTT5=
EXTT6=
EXTT7=
EXTT8=
EXTT9=
EXTT10=
EXTT11=
EXTT12=
EXTT13=
EXTT14=
EXTT15=
EXTT16=
EXTT17=
PLAYORDER=
